<?xml version="1.0" encoding="iso-8859-1"?>
<!-- Generator: Adobe Illustrator 16.0.0, SVG Export Plug-In . SVG Version: 6.00 Build 0)  -->
<!DOCTYPE svg PUBLIC "-//W3C//DTD SVG 1.1//EN" "http://www.w3.org/Graphics/SVG/1.1/DTD/svg11.dtd">
<svg version="1.1" id="Capa_1" xmlns="http://www.w3.org/2000/svg" xmlns:xlink="http://www.w3.org/1999/xlink" x="0px" y="0px"
	 width="981px" height="981px" viewBox="0 0 981 981" style="enable-background:new 0 0 981 981;" xml:space="preserve">
<g>
	<g>
		<path d="M198,728.6v19c0,27.6,22.4,50,50,50h683c27.6,0,50-22.4,50-50V431.4c0-27.601-22.4-50-50-50h-19v267.1
			c0,44.101-35.9,80-80,80H198V728.6z"/>
		<path d="M198,629.6H99v19c0,27.6,22.4,50,50,50h49h634c27.6,0,50-22.4,50-50V381.4v-49c0-27.6-22.4-50-50-50h-19v99v168.1
			c0,44.101-35.9,80-80,80H198V629.6z"/>
		<path d="M50,599.6h19h15h15h99h535c27.6,0,50-22.4,50-50V381.4v-99v-15v-15v-19c0-27.6-22.4-50-50-50H50c-27.6,0-50,22.4-50,50
			v316.1C0,577.2,22.4,599.6,50,599.6z M303.1,381.4v-89c0-3.6,1-7,2.7-10c3.5-6,9.9-10,17.3-10h49v-5v-15v-10.3c0-11,9-20,20-20
			s20,9,20,20v10.3v15v5H453.9c7.399,0,13.899,4,17.3,10c1.7,2.9,2.7,6.3,2.7,10c0,11-9,20-20,20H412.1v59.1H459
			c7.4,0,13.8,4,17.3,9.9c1.7,3,2.7,6.399,2.7,10.1V490.6c0,11-9,20-20,20h-46.9v30.3c0,11-9,20-20,20s-20-9-20-20v-30.3h-47
			c-11,0-20-9-20-20s9-20,20-20h47V411.5h-49c-11,0-20-9-20-20V381.4z"/>
		<rect x="343.1" y="312.4" width="29" height="59.1"/>
		<rect x="412.1" y="411.5" width="26.9" height="59.101"/>
	</g>
</g>
<g>
</g>
<g>
</g>
<g>
</g>
<g>
</g>
<g>
</g>
<g>
</g>
<g>
</g>
<g>
</g>
<g>
</g>
<g>
</g>
<g>
</g>
<g>
</g>
<g>
</g>
<g>
</g>
<g>
</g>
</svg>
